<svg width="24" height="17" viewBox="0 0 24 17" fill="none" xmlns="http://www.w3.org/2000/svg">
<path d="M22.8424 1.06412C22.9326 1.15411 23.0042 1.26101 23.053 1.3787C23.1018 1.4964 23.127 1.62257 23.127 1.74999C23.127 1.87742 23.1018 2.00359 23.053 2.12128C23.0042 2.23898 22.9326 2.34588 22.8424 2.43587L9.27987 15.9984C9.18988 16.0886 9.08298 16.1602 8.96529 16.209C8.84759 16.2578 8.72142 16.283 8.594 16.283C8.46657 16.283 8.3404 16.2578 8.22271 16.209C8.10501 16.1602 7.99811 16.0886 7.90812 15.9984L1.12687 9.21712C0.944967 9.03521 0.842773 8.7885 0.842773 8.53124C0.842773 8.27399 0.944967 8.02727 1.12687 7.84537C1.30878 7.66346 1.55549 7.56127 1.81275 7.56127C2.07 7.56127 2.31672 7.66346 2.49862 7.84537L8.594 13.9427L21.4706 1.06412C21.5606 0.973901 21.6675 0.902324 21.7852 0.853487C21.9029 0.804649 22.0291 0.77951 22.1565 0.77951C22.2839 0.77951 22.4101 0.804649 22.5278 0.853487C22.6455 0.902324 22.7524 0.973901 22.8424 1.06412Z" fill="#57B735"/>
</svg>
