<svg width="23" height="24" viewBox="0 0 23 24" fill="none" xmlns="http://www.w3.org/2000/svg">
<path d="M11.5001 7.17725C10.8873 7.17725 10.2806 7.29794 9.71446 7.53243C9.14834 7.76693 8.63395 8.11063 8.20066 8.54392C7.76737 8.97721 7.42367 9.4916 7.18917 10.0577C6.95468 10.6238 6.83398 11.2306 6.83398 11.8434C6.83398 12.4561 6.95468 13.0629 7.18917 13.629C7.42367 14.1951 7.76737 14.7095 8.20066 15.1428C8.63395 15.5761 9.14834 15.9198 9.71446 16.1543C10.2806 16.3888 10.8873 16.5095 11.5001 16.5095C12.7376 16.5095 13.9245 16.0179 14.7996 15.1428C15.6746 14.2678 16.1662 13.0809 16.1662 11.8434C16.1662 10.6058 15.6746 9.41899 14.7996 8.54392C13.9245 7.66885 12.7376 7.17725 11.5001 7.17725ZM8.27149 11.8434C8.27149 10.9871 8.61164 10.1659 9.21713 9.56039C9.82261 8.9549 10.6438 8.61475 11.5001 8.61475C12.3564 8.61475 13.1776 8.9549 13.7831 9.56039C14.3886 10.1659 14.7287 10.9871 14.7287 11.8434C14.7287 12.6997 14.3886 13.5209 13.7831 14.1264C13.1776 14.7318 12.3564 15.072 11.5001 15.072C10.6438 15.072 9.82261 14.7318 9.21713 14.1264C8.61164 13.5209 8.27149 12.6997 8.27149 11.8434Z" fill="#FF5851"/>
<path d="M14.0815 2.27359C13.324 -0.299531 9.67558 -0.299531 8.91802 2.27359L8.78289 2.73216C8.72999 2.91177 8.63756 3.07728 8.51238 3.21653C8.3872 3.35579 8.23245 3.46527 8.05946 3.53694C7.88647 3.60862 7.69964 3.64068 7.51265 3.63076C7.32567 3.62085 7.14327 3.56922 6.97883 3.47966L6.55908 3.24966C4.20158 1.96741 1.62414 4.54628 2.90783 6.90234L3.13639 7.32209C3.22596 7.48653 3.27759 7.66893 3.2875 7.85592C3.29741 8.0429 3.26536 8.22973 3.19368 8.40272C3.12201 8.57571 3.01253 8.73046 2.87327 8.85564C2.73402 8.98082 2.56851 9.07325 2.38889 9.12616L1.93033 9.26128C-0.642793 10.0188 -0.642793 13.6672 1.93033 14.4248L2.38889 14.5599C2.56851 14.6128 2.73402 14.7052 2.87327 14.8304C3.01253 14.9556 3.12201 15.1104 3.19368 15.2833C3.26536 15.4563 3.29741 15.6432 3.2875 15.8301C3.27759 16.0171 3.22596 16.1995 3.13639 16.364L2.90639 16.7837C1.62414 19.1412 4.20158 21.7201 6.55908 20.435L6.97883 20.2064C7.14327 20.1168 7.32567 20.0652 7.51265 20.0553C7.69964 20.0454 7.88647 20.0774 8.05946 20.1491C8.23245 20.2208 8.3872 20.3303 8.51238 20.4695C8.63756 20.6088 8.72999 20.7743 8.78289 20.9539L8.91802 21.4125C9.67558 23.9856 13.324 23.9856 14.0815 21.4125L14.2166 20.9539C14.2696 20.7743 14.362 20.6088 14.4872 20.4695C14.6123 20.3303 14.7671 20.2208 14.9401 20.1491C15.1131 20.0774 15.2999 20.0454 15.4869 20.0553C15.6739 20.0652 15.8563 20.1168 16.0207 20.2064L16.4405 20.4364C18.798 21.7201 21.3768 19.1398 20.0917 16.7837L19.8631 16.364C19.7736 16.1995 19.722 16.0171 19.712 15.8301C19.7021 15.6432 19.7342 15.4563 19.8059 15.2833C19.8775 15.1104 19.987 14.9556 20.1263 14.8304C20.2655 14.7052 20.431 14.6128 20.6106 14.5599L21.0692 14.4248C23.6423 13.6672 23.6423 10.0188 21.0692 9.26128L20.6106 9.12616C20.431 9.07325 20.2655 8.98082 20.1263 8.85564C19.987 8.73046 19.8775 8.57571 19.8059 8.40272C19.7342 8.22973 19.7021 8.0429 19.712 7.85592C19.722 7.66893 19.7736 7.48653 19.8631 7.32209L20.0931 6.90234C21.3768 4.54484 18.7965 1.96741 16.4405 3.25109L16.0207 3.47966C15.8563 3.56922 15.6739 3.62085 15.4869 3.63076C15.2999 3.64068 15.1131 3.60862 14.9401 3.53694C14.7671 3.46527 14.6123 3.35579 14.4872 3.21653C14.362 3.07728 14.2696 2.91177 14.2166 2.73216L14.0815 2.27359ZM10.2966 2.68041C10.6502 1.48009 12.3493 1.48009 12.703 2.68041L12.8381 3.13897C12.9517 3.52434 13.1501 3.87941 13.4187 4.17814C13.6874 4.47687 14.0195 4.71168 14.3907 4.86538C14.7619 5.01907 15.1628 5.08774 15.564 5.06635C15.9652 5.04497 16.3565 4.93407 16.7093 4.74178L17.1276 4.51178C18.2258 3.91522 19.4276 5.11553 18.8296 6.21522L18.601 6.63497C18.409 6.98777 18.2984 7.37906 18.2772 7.78016C18.2561 8.18126 18.3249 8.58202 18.4788 8.95306C18.6326 9.3241 18.8675 9.65602 19.1662 9.92451C19.4649 10.193 19.82 10.3912 20.2053 10.5047L20.6624 10.6398C21.8627 10.9935 21.8627 12.6926 20.6624 13.0462L20.2038 13.1813C19.8185 13.2949 19.4634 13.4933 19.1647 13.762C18.8659 14.0306 18.6311 14.3627 18.4774 14.734C18.3237 15.1052 18.2551 15.5061 18.2764 15.9072C18.2978 16.3084 18.4087 16.6998 18.601 17.0525L18.831 17.4708C19.4276 18.5691 18.2273 19.7708 17.1276 19.1728L16.7093 18.9443C16.3564 18.752 15.965 18.6412 15.5637 18.6199C15.1624 18.5986 14.7615 18.6674 14.3903 18.8212C14.019 18.975 13.687 19.21 13.4184 19.5089C13.1498 19.8078 12.9515 20.163 12.8381 20.5485L12.703 21.0057C12.3493 22.206 10.6502 22.206 10.2966 21.0057L10.1615 20.5471C10.0478 20.1619 9.84945 19.8071 9.5809 19.5085C9.31234 19.2099 8.98039 18.9752 8.60937 18.8215C8.23835 18.6678 7.83765 18.5991 7.43663 18.6203C7.03561 18.6416 6.64441 18.7523 6.29171 18.9443L5.87196 19.1743C4.77371 19.7708 3.57196 18.5705 4.16996 17.4708L4.39852 17.0525C4.59107 16.6997 4.70219 16.3083 4.72372 15.9069C4.74525 15.5055 4.67664 15.1044 4.52293 14.733C4.36921 14.3617 4.1343 14.0294 3.83542 13.7606C3.53654 13.4919 3.18128 13.2934 2.79571 13.1799L2.33714 13.0448C1.13683 12.6912 1.13683 10.992 2.33714 10.6384L2.79571 10.5033C3.18068 10.3896 3.53536 10.1913 3.83379 9.9228C4.13222 9.65435 4.36684 9.32256 4.5205 8.95172C4.67415 8.58089 4.74294 8.18039 4.72184 7.77953C4.70073 7.37868 4.59026 6.98762 4.39852 6.63497L4.16852 6.21522C3.57196 5.11697 4.77227 3.91522 5.87196 4.51322L6.29171 4.74178C6.64441 4.9338 7.03561 5.04448 7.43663 5.06573C7.83765 5.08697 8.23835 5.01824 8.60937 4.86457C8.98039 4.71089 9.31234 4.47617 9.5809 4.17759C9.84945 3.87901 10.0478 3.52414 10.1615 3.13897L10.2966 2.68041Z" fill="#FF5851"/>
</svg>
