<svg width="19" height="24" viewBox="0 0 19 24" fill="none" xmlns="http://www.w3.org/2000/svg">
<path d="M15.4886 13.1945C14.7354 14.7211 13.7148 16.242 12.6711 17.6076C11.6811 18.8951 10.6225 20.1283 9.5 21.302C8.37743 20.1283 7.31886 18.8951 6.32888 17.6076C5.28525 16.242 4.26463 14.7211 3.51138 13.1945C2.7495 11.6521 2.3125 10.2074 2.3125 8.96826C2.3125 7.06202 3.06975 5.23385 4.41767 3.88593C5.76559 2.53801 7.59376 1.78076 9.5 1.78076C11.4062 1.78076 13.2344 2.53801 14.5823 3.88593C15.9302 5.23385 16.6875 7.06202 16.6875 8.96826C16.6875 10.2074 16.2491 11.6521 15.4886 13.1945ZM9.5 23.3433C9.5 23.3433 18.125 15.1696 18.125 8.96826C18.125 6.68077 17.2163 4.48697 15.5988 2.86947C13.9813 1.25196 11.7875 0.343262 9.5 0.343262C7.21251 0.343262 5.01871 1.25196 3.4012 2.86947C1.7837 4.48697 0.875 6.68077 0.875 8.96826C0.875 15.1696 9.5 23.3433 9.5 23.3433Z" fill="#FF5851"/>
<path d="M9.5 11.8433C8.7375 11.8433 8.00623 11.5404 7.46707 11.0012C6.9279 10.462 6.625 9.73076 6.625 8.96826C6.625 8.20576 6.9279 7.4745 7.46707 6.93533C8.00623 6.39616 8.7375 6.09326 9.5 6.09326C10.2625 6.09326 10.9938 6.39616 11.5329 6.93533C12.0721 7.4745 12.375 8.20576 12.375 8.96826C12.375 9.73076 12.0721 10.462 11.5329 11.0012C10.9938 11.5404 10.2625 11.8433 9.5 11.8433ZM9.5 13.2808C10.6437 13.2808 11.7406 12.8264 12.5494 12.0177C13.3581 11.2089 13.8125 10.112 13.8125 8.96826C13.8125 7.82452 13.3581 6.72761 12.5494 5.91886C11.7406 5.11011 10.6437 4.65576 9.5 4.65576C8.35625 4.65576 7.25935 5.11011 6.4506 5.91886C5.64185 6.72761 5.1875 7.82452 5.1875 8.96826C5.1875 10.112 5.64185 11.2089 6.4506 12.0177C7.25935 12.8264 8.35625 13.2808 9.5 13.2808Z" fill="#FF5851"/>
</svg>
