<svg width="23" height="23" viewBox="0 0 23 23" fill="none" xmlns="http://www.w3.org/2000/svg">
<path d="M5.51137 12.8512C6.26462 14.3779 7.28525 15.8988 8.32887 17.2644C9.31888 18.5518 10.3775 19.7851 11.5 20.9587C12.6226 19.7851 13.6811 18.5518 14.6711 17.2644C15.7147 15.8988 16.7354 14.3779 17.4886 12.8512C18.2505 11.3088 18.6875 9.86413 18.6875 8.625C18.6875 6.71876 17.9302 4.89059 16.5823 3.54267C15.2344 2.19475 13.4062 1.4375 11.5 1.4375C9.59376 1.4375 7.76559 2.19475 6.41767 3.54267C5.06975 4.89059 4.3125 6.71876 4.3125 8.625C4.3125 9.86413 4.75094 11.3088 5.51137 12.8512ZM11.5 23C11.5 23 2.875 14.8264 2.875 8.625C2.875 6.33751 3.7837 4.14371 5.4012 2.5262C7.01871 0.908703 9.21251 0 11.5 0C13.7875 0 15.9813 0.908703 17.5988 2.5262C19.2163 4.14371 20.125 6.33751 20.125 8.625C20.125 14.8264 11.5 23 11.5 23Z" fill="#FF6464"/>
<path d="M11.5 11.5C12.2625 11.5 12.9938 11.1971 13.5329 10.6579C14.0721 10.1188 14.375 9.3875 14.375 8.625C14.375 7.8625 14.0721 7.13123 13.5329 6.59207C12.9938 6.0529 12.2625 5.75 11.5 5.75C10.7375 5.75 10.0062 6.0529 9.46707 6.59207C8.9279 7.13123 8.625 7.8625 8.625 8.625C8.625 9.3875 8.9279 10.1188 9.46707 10.6579C10.0062 11.1971 10.7375 11.5 11.5 11.5ZM11.5 12.9375C10.3563 12.9375 9.25935 12.4831 8.4506 11.6744C7.64185 10.8656 7.1875 9.76875 7.1875 8.625C7.1875 7.48125 7.64185 6.38435 8.4506 5.5756C9.25935 4.76685 10.3563 4.3125 11.5 4.3125C12.6437 4.3125 13.7406 4.76685 14.5494 5.5756C15.3581 6.38435 15.8125 7.48125 15.8125 8.625C15.8125 9.76875 15.3581 10.8656 14.5494 11.6744C13.7406 12.4831 12.6437 12.9375 11.5 12.9375Z" fill="#FF6464"/>
</svg>
