<svg width="23" height="23" viewBox="0 0 23 23" fill="none" xmlns="http://www.w3.org/2000/svg">
<g clip-path="url(#clip0_32_785)">
<path d="M20.125 1.4375C20.5062 1.4375 20.8719 1.58895 21.1415 1.85853C21.411 2.12812 21.5625 2.49375 21.5625 2.875V20.125C21.5625 20.5062 21.411 20.8719 21.1415 21.1415C20.8719 21.411 20.5062 21.5625 20.125 21.5625H2.875C2.49375 21.5625 2.12812 21.411 1.85853 21.1415C1.58895 20.8719 1.4375 20.5062 1.4375 20.125V2.875C1.4375 2.49375 1.58895 2.12812 1.85853 1.85853C2.12812 1.58895 2.49375 1.4375 2.875 1.4375H20.125ZM2.875 0C2.1125 0 1.38124 0.302901 0.842068 0.842068C0.302901 1.38124 0 2.1125 0 2.875L0 20.125C0 20.8875 0.302901 21.6188 0.842068 22.1579C1.38124 22.6971 2.1125 23 2.875 23H20.125C20.8875 23 21.6188 22.6971 22.1579 22.1579C22.6971 21.6188 23 20.8875 23 20.125V2.875C23 2.1125 22.6971 1.38124 22.1579 0.842068C21.6188 0.302901 20.8875 0 20.125 0L2.875 0Z" fill="#FF6464"/>
<path d="M12.8368 9.47025L9.54493 9.88281L9.42706 10.4291L10.0739 10.5484C10.4966 10.649 10.5799 10.8014 10.4879 11.2226L9.42706 16.2078C9.14818 17.4972 9.57799 18.1039 10.5886 18.1039C11.372 18.1039 12.2819 17.7416 12.6945 17.2443L12.821 16.6462C12.5335 16.8993 12.1137 16.9999 11.8349 16.9999C11.4396 16.9999 11.2958 16.7224 11.3979 16.2337L12.8368 9.47025ZM12.9374 6.46875C12.9374 6.85 12.786 7.21563 12.5164 7.48522C12.2468 7.7548 11.8812 7.90625 11.4999 7.90625C11.1187 7.90625 10.753 7.7548 10.4835 7.48522C10.2139 7.21563 10.0624 6.85 10.0624 6.46875C10.0624 6.0875 10.2139 5.72187 10.4835 5.45228C10.753 5.1827 11.1187 5.03125 11.4999 5.03125C11.8812 5.03125 12.2468 5.1827 12.5164 5.45228C12.786 5.72187 12.9374 6.0875 12.9374 6.46875Z" fill="#FF6464"/>
</g>
<defs>
<clipPath id="clip0_32_785">
<rect width="23" height="23" fill="white"/>
</clipPath>
</defs>
</svg>
