<svg width="24" height="24" viewBox="0 0 24 24" fill="none" xmlns="http://www.w3.org/2000/svg">
<g clip-path="url(#clip0_154_62)">
<path d="M12.0027 5.8467C8.59742 5.8467 5.85075 8.59397 5.85075 12C5.85075 15.406 8.59742 18.1533 12.0027 18.1533C15.4079 18.1533 18.1546 15.406 18.1546 12C18.1546 8.59397 15.4079 5.8467 12.0027 5.8467ZM12.0027 16.0004C9.80209 16.0004 8.00314 14.2064 8.00314 12C8.00314 9.7936 9.79674 7.99957 12.0027 7.99957C14.2086 7.99957 16.0022 9.7936 16.0022 12C16.0022 14.2064 14.2033 16.0004 12.0027 16.0004ZM19.8412 5.595C19.8412 6.39292 19.1986 7.03022 18.4063 7.03022C17.6085 7.03022 16.9713 6.38757 16.9713 5.595C16.9713 4.80241 17.6138 4.15977 18.4063 4.15977C19.1986 4.15977 19.8412 4.80241 19.8412 5.595ZM23.9157 7.05163C23.8247 5.12909 23.3856 3.42609 21.9775 2.02298C20.5747 0.619883 18.8721 0.180743 16.9499 0.0843465C14.9689 -0.0281155 9.03114 -0.0281155 7.05009 0.0843465C5.1333 0.175388 3.43068 0.614526 2.02253 2.01763C0.614389 3.42073 0.180703 5.12373 0.084328 7.04628C-0.0281093 9.02775 -0.0281093 14.9669 0.084328 16.9484C0.175348 18.8709 0.614389 20.5739 2.02253 21.977C3.43068 23.3801 5.12794 23.8193 7.05009 23.9156C9.03114 24.0281 14.9689 24.0281 16.9499 23.9156C18.8721 23.8246 20.5747 23.3855 21.9775 21.977C23.3802 20.5739 23.8193 18.8709 23.9157 16.9484C24.0281 14.9669 24.0281 9.03311 23.9157 7.05163ZM21.3564 19.0744C20.9388 20.1241 20.1303 20.9327 19.0755 21.3558C17.4961 21.9824 13.7481 21.8378 12.0027 21.8378C10.2572 21.8378 6.50394 21.977 4.92984 21.3558C3.88042 20.9381 3.07194 20.1294 2.64897 19.0744C2.02253 17.4946 2.1671 13.7458 2.1671 12C2.1671 10.2542 2.02789 6.50006 2.64897 4.92558C3.06659 3.87593 3.87507 3.06727 4.92984 2.6442C6.50929 2.01763 10.2572 2.16222 12.0027 2.16222C13.7481 2.16222 17.5014 2.02298 19.0755 2.6442C20.1249 3.06192 20.9334 3.87058 21.3564 4.92558C21.9828 6.50542 21.8383 10.2542 21.8383 12C21.8383 13.7458 21.9828 17.4999 21.3564 19.0744Z" fill="#F5F3F3"/>
</g>
<defs>
<clipPath id="clip0_154_62">
<rect width="24" height="24" fill="white"/>
</clipPath>
</defs>
</svg>
