<svg width="43" height="43" viewBox="0 0 43 43" fill="none" xmlns="http://www.w3.org/2000/svg">
<g clip-path="url(#clip0_1057_32)">
<path d="M39.817 0H3.17461C1.41934 0 0 1.38574 0 3.09902V39.8926C0 41.6059 1.41934 43 3.17461 43H39.817C41.5723 43 43 41.6059 43 39.901V3.09902C43 1.38574 41.5723 0 39.817 0ZM12.7572 36.6424H6.37441V16.1166H12.7572V36.6424ZM9.56582 13.3199C7.5166 13.3199 5.86211 11.6654 5.86211 9.62461C5.86211 7.58379 7.5166 5.9293 9.56582 5.9293C11.6066 5.9293 13.2611 7.58379 13.2611 9.62461C13.2611 11.657 11.6066 13.3199 9.56582 13.3199ZM36.6424 36.6424H30.268V26.665C30.268 24.2883 30.226 21.2229 26.9506 21.2229C23.6332 21.2229 23.1293 23.818 23.1293 26.4971V36.6424H16.7633V16.1166H22.8773V18.9217H22.9613C23.8096 17.3092 25.8924 15.6043 28.9914 15.6043C35.4498 15.6043 36.6424 19.8539 36.6424 25.3801V36.6424V36.6424Z" fill="#6E56E7"/>
</g>
<defs>
<clipPath id="clip0_1057_32">
<rect width="43" height="43" fill="white"/>
</clipPath>
</defs>
</svg>
