<svg width="43" height="43" viewBox="0 0 43 43" fill="none" xmlns="http://www.w3.org/2000/svg">
<path d="M21.5 0C9.62614 0 0 9.62516 0 21.5C0 33.3748 9.62614 43 21.5 43C33.3739 43 43 33.3748 43 21.5C43 9.62516 33.3739 0 21.5 0ZM31.9894 30.9936C31.6441 31.605 31.0089 31.949 30.3541 31.949C30.0479 31.949 29.7319 31.8724 29.442 31.7112C26.7577 30.2062 23.8324 29.2843 20.741 28.9712C17.643 28.6608 14.5842 28.9752 11.6458 29.9133C10.6653 30.2264 9.60986 29.6847 9.29713 28.7025C8.98115 27.7187 9.52515 26.6668 10.5089 26.3522C13.9359 25.2573 17.5095 24.8849 21.1188 25.2517C24.7217 25.6186 28.1357 26.6936 31.2695 28.45C32.1718 28.9524 32.4943 30.0919 31.9894 30.9936ZM34.5629 24.4631C34.2306 25.1025 33.5791 25.4694 32.9048 25.4694C32.6116 25.4694 32.3184 25.4022 32.0415 25.2573C28.7416 23.5386 25.1778 22.4743 21.4413 22.0952C17.6756 21.7098 13.9457 22.0456 10.3493 23.0829C9.35576 23.365 8.31986 22.7968 8.03645 21.8036C7.74979 20.812 8.32309 19.7761 9.3134 19.4897C13.3723 18.3193 17.5811 17.9444 21.8192 18.3744C26.028 18.8031 30.0479 20.0018 33.7713 21.9421C34.6834 22.4193 35.0417 23.5477 34.5629 24.4631ZM35.4945 19.0301C35.2144 19.0301 34.931 18.9669 34.6606 18.834C30.745 16.8814 26.5329 15.6654 22.1385 15.2194C17.7375 14.7692 13.3593 15.1171 9.12121 16.2488C8.12439 16.5133 7.10151 15.9221 6.83439 14.9236C6.56727 13.9265 7.16017 12.9013 8.16024 12.6352C12.8349 11.3869 17.6691 11.0067 22.5196 11.4999C27.3636 11.9902 32.0089 13.3326 36.3285 15.4868C37.2536 15.9475 37.6282 17.071 37.1689 17.9942C36.8432 18.6513 36.1819 19.0301 35.4945 19.0301Z" fill="#6E56E7"/>
</svg>
