<svg width="21" height="21" viewBox="0 0 21 21" fill="none" xmlns="http://www.w3.org/2000/svg">
<g clip-path="url(#clip0_16_168)">
<path d="M4.796 1.74308C4.71852 1.64341 4.62072 1.56137 4.5091 1.5024C4.39747 1.44344 4.27457 1.40889 4.14857 1.40107C4.02257 1.39325 3.89635 1.41233 3.77829 1.45704C3.66023 1.50175 3.55303 1.57107 3.46382 1.66039L2.10669 3.01883C1.47275 3.65408 1.23913 4.55314 1.51607 5.34196C2.66548 8.60692 4.5352 11.5712 6.98657 14.015C9.43035 16.4663 12.3946 18.336 15.6596 19.4855C16.4484 19.7624 17.3474 19.5288 17.9827 18.8948L19.3398 17.5377C19.4291 17.4485 19.4985 17.3413 19.5432 17.2232C19.5879 17.1052 19.607 16.979 19.5991 16.853C19.5913 16.7269 19.5568 16.6041 19.4978 16.4924C19.4388 16.3808 19.3568 16.283 19.2571 16.2055L16.2292 13.8509C16.1227 13.7683 15.9989 13.711 15.867 13.6832C15.7351 13.6555 15.5987 13.6581 15.4679 13.6908L12.5936 14.4087C12.2099 14.5046 11.8079 14.4995 11.4268 14.3939C11.0457 14.2884 10.6984 14.0859 10.4188 13.8063L7.19525 10.5815C6.91539 10.3019 6.71268 9.95471 6.60688 9.57359C6.50107 9.19246 6.49578 8.79043 6.59151 8.40664L7.31076 5.53227C7.34345 5.40154 7.34602 5.26509 7.31828 5.13322C7.29054 5.00135 7.23322 4.8775 7.15063 4.77102L4.796 1.74308ZM2.47288 0.670769C2.70256 0.441016 2.97849 0.262753 3.28235 0.147819C3.58621 0.0328841 3.91104 -0.0160923 4.23528 0.00414162C4.55952 0.0243755 4.87574 0.113357 5.16296 0.265176C5.45017 0.416996 5.7018 0.628181 5.90113 0.884707L8.25576 3.91133C8.68757 4.46652 8.83982 5.18971 8.66919 5.87221L7.95126 8.74658C7.91414 8.89546 7.91614 9.0514 7.95708 9.19928C7.99801 9.34715 8.07649 9.48193 8.18488 9.59052L11.4097 12.8153C11.5184 12.9239 11.6534 13.0026 11.8015 13.0435C11.9497 13.0844 12.1059 13.0863 12.2549 13.049L15.128 12.331C15.4648 12.2468 15.8164 12.2403 16.1561 12.3119C16.4958 12.3835 16.8147 12.5314 17.0889 12.7445L20.1155 15.0991C21.2036 15.9456 21.3033 17.5535 20.3294 18.526L18.9723 19.8831C18.0011 20.8544 16.5494 21.281 15.1963 20.8045C11.7328 19.5859 8.58817 17.6031 5.99563 15.0033C3.39595 12.4111 1.41318 9.26693 0.19438 5.80396C-0.280745 4.45208 0.145817 2.99914 1.11707 2.02789L2.47419 0.670769H2.47288Z" fill="#CCCCCC"/>
</g>
<defs>
<clipPath id="clip0_16_168">
<rect width="21" height="21" fill="white"/>
</clipPath>
</defs>
</svg>
