<svg width="43" height="43" viewBox="0 0 43 43" fill="none" xmlns="http://www.w3.org/2000/svg">
<g clip-path="url(#clip0_1059_50)">
<path d="M43.0597 13.0069C42.5421 11.0361 41.0173 9.48392 39.0812 8.95717C35.5719 8 21.5 8 21.5 8C21.5 8 7.42818 8 3.91879 8.95717C1.9827 9.484 0.457856 11.0361 -0.0596814 13.0069C-1 16.5792 -1 24.0323 -1 24.0323C-1 24.0323 -1 31.4855 -0.0596814 35.0578C0.457856 37.0286 1.9827 38.5161 3.91879 39.0428C7.42818 40 21.5 40 21.5 40C21.5 40 35.5718 40 39.0812 39.0428C41.0173 38.5161 42.5421 37.0286 43.0597 35.0578C44 31.4855 44 24.0323 44 24.0323C44 24.0323 44 16.5792 43.0597 13.0069V13.0069ZM16.8977 30.7993V17.2654L28.659 24.0325L16.8977 30.7993V30.7993Z" fill="#6E56E7"/>
</g>
<defs>
<clipPath id="clip0_1059_50">
<rect width="43" height="43" fill="white"/>
</clipPath>
</defs>
</svg>
