<?xml version="1.0" standalone="no"?>
<!DOCTYPE svg PUBLIC "-//W3C//DTD SVG 20010904//EN"
 "http://www.w3.org/TR/2001/REC-SVG-20010904/DTD/svg10.dtd">
<svg version="1.0" xmlns="http://www.w3.org/2000/svg"
 width="80.000000pt" height="80.000000pt" viewBox="0 0 80.000000 80.000000"
 preserveAspectRatio="xMidYMid meet">
<metadata>
Created by potrace 1.14, written by Peter Selinger 2001-2017
</metadata>
<g transform="translate(0.000000,80.000000) scale(0.100000,-0.100000)"
fill="#000000" stroke="none">
<path d="M181 710 c-6 -4 -13 -29 -37 -135 -1 -5 -4 -22 -7 -37 -3 -15 -8 -31
-10 -35 -3 -5 -8 -24 -11 -43 -3 -19 -11 -53 -16 -75 -15 -56 -23 -97 -24
-117 0 -10 -5 -18 -10 -18 -5 0 -7 -3 -4 -6 3 -3 2 -21 -4 -41 -5 -19 -11 -44
-13 -55 -2 -11 -7 -28 -10 -37 -3 -10 1 -24 10 -31 12 -10 15 -10 15 0 0 10 3
10 14 1 11 -9 15 -9 19 1 4 10 6 10 6 -1 1 -11 4 -11 16 -1 8 7 15 8 15 3 0
-5 9 -9 20 -9 11 0 20 5 20 11 0 5 4 4 9 -4 6 -9 10 -10 16 -2 5 9 10 9 21 0
10 -8 14 -8 14 0 0 6 5 11 11 11 5 0 8 -3 6 -7 -6 -10 115 -9 130 0 6 4 14 1
16 -5 4 -10 8 -9 16 2 8 12 11 12 11 1 0 -10 3 -11 13 -2 10 8 17 7 25 -1 9
-9 12 -9 12 0 0 7 5 12 11 12 5 0 8 -4 5 -8 -3 -5 1 -9 9 -9 8 0 15 5 15 10 0
5 7 4 15 -3 12 -10 15 -10 15 0 0 10 3 10 14 1 11 -9 15 -9 19 1 4 10 6 10 6
-1 1 -11 4 -11 16 -1 12 10 15 10 15 -1 0 -11 2 -11 10 1 5 8 10 11 11 5 0 -5
9 26 20 70 25 100 29 114 35 144 3 14 7 28 9 31 2 4 7 20 9 36 6 30 13 60 21
94 3 11 7 28 9 38 3 9 16 60 29 112 14 52 23 97 20 100 -6 6 -593 7 -602 0z"/>
</g>
</svg>
